<svg width="40" height="40" viewBox="0 0 40 40" fill="none" xmlns="http://www.w3.org/2000/svg">
<path d="M26.7169 14.1168C26.2287 13.6286 25.4373 13.6286 24.9491 14.1168C24.461 14.6049 24.461 15.3964 24.9491 15.8845L25.2351 16.1705C26.3712 17.3066 27.1325 18.0716 27.6252 18.7174C28.0959 19.3344 28.2023 19.6935 28.2023 20.0007C28.2023 20.3078 28.0959 20.6669 27.6252 21.2839C27.1325 21.9297 26.3712 22.6947 25.2351 23.8308L24.9491 24.1168C24.461 24.6049 24.461 25.3964 24.9491 25.8845C25.4373 26.3727 26.2287 26.3727 26.7169 25.8845L27.0641 25.5373C28.123 24.4785 29.006 23.5955 29.6127 22.8003C30.2531 21.961 30.7023 21.0742 30.7023 20.0007C30.7023 18.9271 30.2531 18.0403 29.6127 17.201C29.006 16.4058 28.123 15.5228 27.0641 14.464L26.7169 14.1168Z" fill="#5F5DD9"/>
<path d="M22.4798 10.7438C23.1466 10.9225 23.5423 11.6079 23.3637 12.2748L19.05 28.3735C18.8713 29.0404 18.1859 29.4361 17.5191 29.2574C16.8522 29.0787 16.4565 28.3933 16.6352 27.7265L20.9488 11.6277C21.1275 10.9609 21.8129 10.5651 22.4798 10.7438Z" fill="#5F5DD9"/>
<path d="M15.0505 14.1168C14.5624 13.6286 13.7709 13.6286 13.2828 14.1168L12.9355 14.464C11.8766 15.5228 10.9936 16.4058 10.3869 17.201C9.74653 18.0403 9.29736 18.9271 9.29736 20.0007C9.29736 21.0742 9.74653 21.961 10.3869 22.8003C10.9936 23.5955 11.8766 24.4785 12.9355 25.5373L13.2828 25.8845C13.7709 26.3727 14.5624 26.3727 15.0505 25.8845C15.5387 25.3964 15.5387 24.6049 15.0505 24.1168L14.7646 23.8308C13.6285 22.6947 12.8672 21.9297 12.3745 21.2839C11.9038 20.6669 11.7974 20.3078 11.7974 20.0007C11.7974 19.6935 11.9038 19.3344 12.3745 18.7174C12.8672 18.0716 13.6285 17.3066 14.7646 16.1705L15.0505 15.8845C15.5387 15.3964 15.5387 14.6049 15.0505 14.1168Z" fill="#5F5DD9"/>
<path fill-rule="evenodd" clip-rule="evenodd" d="M19.9997 2.08398C10.1046 2.08398 2.08301 10.1055 2.08301 20.0007C2.08301 29.8958 10.1046 37.9173 19.9997 37.9173C29.8948 37.9173 37.9163 29.8958 37.9163 20.0007C37.9163 10.1055 29.8948 2.08398 19.9997 2.08398ZM4.58301 20.0007C4.58301 11.4863 11.4853 4.58398 19.9997 4.58398C28.5141 4.58398 35.4163 11.4863 35.4163 20.0007C35.4163 28.515 28.5141 35.4173 19.9997 35.4173C11.4853 35.4173 4.58301 28.515 4.58301 20.0007Z" fill="#5F5DD9"/>
</svg>
